<svg width="891" height="842" viewBox="0 0 891 842" fill="none" xmlns="http://www.w3.org/2000/svg">
<path d="M238.477 841.994C264.099 841.994 284.87 840.067 284.87 837.691C284.87 835.314 264.099 833.388 238.477 833.388C212.855 833.388 192.084 835.314 192.084 837.691C192.084 840.067 212.855 841.994 238.477 841.994Z" fill="#58BB85"/>
<path d="M185.35 754.63C185.35 757.062 164.586 758.93 138.957 758.93C113.328 758.93 92.5649 757.064 92.5649 754.63C92.5649 752.196 113.329 750.33 138.958 750.33C164.587 750.33 185.35 752.201 185.35 754.63Z" fill="#58BB85"/>
<path d="M722.419 766.419C754.24 766.419 780.036 764.492 780.036 762.116C780.036 759.74 754.24 757.813 722.419 757.813C690.598 757.813 664.802 759.74 664.802 762.116C664.802 764.492 690.598 766.419 722.419 766.419Z" fill="#58BB85"/>
<path d="M421.615 753.136C421.615 755.194 403.282 756.877 380.834 756.877C358.386 756.877 340.053 755.193 340.053 753.136C340.053 751.079 358.386 749.395 380.834 749.395C403.47 749.208 421.615 750.888 421.615 753.136Z" fill="#58BB85"/>
<path d="M325.09 623.311L317.607 752.574L571.644 748.459L325.09 623.311Z" fill="#58BB85"/>
<path d="M328.456 752.014L325.089 623.314L567.34 610.03L571.64 748.459L328.456 752.014Z" fill="#8982BC"/>
<path d="M412.075 438.864L414.881 559.148L664.989 557.09L653.391 416.603L412.075 438.864Z" fill="#58BB85"/>
<path d="M187.221 300.808L695.669 304.362V283.785L187.221 272V300.808Z" fill="#EFF3FB"/>
<path d="M187.221 300.808V342.524H695.669V304.362L187.221 300.808Z" fill="#624FB5"/>
<path d="M251.291 325.176C253.16 317.232 248.235 309.276 240.29 307.407C232.345 305.538 224.389 310.463 222.52 318.408C220.651 326.352 225.576 334.308 233.521 336.177C241.466 338.046 249.422 333.121 251.291 325.176Z" fill="white"/>
<path d="M269.905 316.709V326.809H343.983V316.709" fill="white"/>
<path d="M385.325 309.6V336.538H572.766V311.845L385.325 309.6Z" fill="white"/>
<path d="M403.528 318.906H401.243V325.244H400.311V318.906H398.03V318.135H403.528V318.906ZM406.146 325.342C405.429 325.342 404.847 325.107 404.397 324.639C403.948 324.167 403.724 323.537 403.724 322.749V322.583C403.724 322.059 403.823 321.592 404.021 321.182C404.223 320.768 404.503 320.446 404.861 320.215C405.223 319.98 405.613 319.863 406.033 319.863C406.72 319.863 407.254 320.089 407.635 320.542C408.016 320.994 408.206 321.642 408.206 322.485V322.861H404.627C404.64 323.382 404.791 323.804 405.081 324.126C405.374 324.445 405.745 324.604 406.194 324.604C406.513 324.604 406.784 324.539 407.005 324.409C407.226 324.279 407.42 324.106 407.586 323.891L408.138 324.321C407.695 325.002 407.031 325.342 406.146 325.342ZM406.033 320.605C405.669 320.605 405.363 320.739 405.115 321.006C404.868 321.269 404.715 321.641 404.656 322.119H407.303V322.051C407.277 321.592 407.153 321.237 406.932 320.986C406.71 320.732 406.411 320.605 406.033 320.605ZM411.028 321.89L412.2 319.961H413.255L411.526 322.573L413.309 325.244H412.264L411.043 323.266L409.822 325.244H408.772L410.555 322.573L408.826 319.961H409.871L411.028 321.89ZM415.442 318.682V319.961H416.429V320.659H415.442V323.935C415.442 324.147 415.486 324.307 415.574 324.414C415.662 324.518 415.812 324.57 416.023 324.57C416.128 324.57 416.271 324.551 416.453 324.512V325.244C416.215 325.309 415.984 325.342 415.76 325.342C415.356 325.342 415.052 325.22 414.847 324.975C414.642 324.731 414.539 324.385 414.539 323.935V320.659H413.577V319.961H414.539V318.682H415.442Z" fill="#4D7EB7"/>
<path d="M204.431 291.455C206.187 291.455 207.611 290.031 207.611 288.275C207.611 286.519 206.187 285.095 204.431 285.095C202.675 285.095 201.251 286.519 201.251 288.275C201.251 290.031 202.675 291.455 204.431 291.455Z" fill="#FC846D"/>
<path d="M219.022 291.455C220.778 291.455 222.202 290.031 222.202 288.275C222.202 286.519 220.778 285.095 219.022 285.095C217.266 285.095 215.842 286.519 215.842 288.275C215.842 290.031 217.266 291.455 219.022 291.455Z" fill="#F9D452"/>
<path d="M236.793 288.275C236.793 288.904 236.606 289.519 236.257 290.042C235.908 290.565 235.411 290.972 234.83 291.213C234.249 291.454 233.609 291.517 232.992 291.394C232.376 291.271 231.809 290.968 231.364 290.524C230.92 290.079 230.617 289.512 230.494 288.895C230.371 288.279 230.434 287.639 230.675 287.058C230.916 286.477 231.323 285.98 231.846 285.631C232.369 285.282 232.984 285.095 233.613 285.095C234.036 285.076 234.458 285.145 234.852 285.298C235.247 285.451 235.605 285.685 235.904 285.984C236.203 286.283 236.437 286.641 236.59 287.036C236.743 287.43 236.812 287.852 236.793 288.275Z" fill="#57BE8B"/>
<path d="M230.433 375.635H237.167V460.937H230.433V375.635Z" fill="#C4B9FF"/>
<path d="M251.572 381.995V389.104H343.983L345.105 380.873L251.572 381.995Z" fill="#8982BC"/>
<path d="M407.586 372.455V379.564H665.177L668.357 371.52L407.586 372.455Z" fill="#8982BC"/>
<path d="M407.586 566.069V573.178H665.177L668.357 565.134L407.586 566.069Z" fill="#8982BC"/>
<path d="M407.586 396.96V404.069H505.609L506.918 396.025L407.586 396.96Z" fill="#8982BC"/>
<path d="M407.586 590.949V598.058H505.609L506.918 589.827L407.586 590.949Z" fill="#8982BC"/>
<path d="M252.507 404.069V411.369H344.731L345.105 404.822L252.507 404.069Z" fill="#8982BC"/>
<path d="M252.133 427.827V434.936H344.357L344.731 428.389L252.133 427.827Z" fill="#8982BC"/>
<path d="M252.133 453.829V461.129H344.357L344.731 454.582L252.133 453.829Z" fill="#8982BC"/>
<path d="M412.075 432.316L422.551 559.334L664.051 539.505L653.391 409.868L412.075 432.316Z" fill="#FE9887"/>
<g opacity="0.18">
<path opacity="0.18" d="M629.072 542.873C627.083 538.711 625.638 534.309 624.772 529.778C624.585 529.041 624.585 528.27 624.772 527.533C625.146 525.849 627.204 524.914 628.887 525.101C630.596 525.41 632.128 526.344 633.187 527.72C634.309 529.029 635.432 530.526 636.554 531.648C637.444 532.394 638.381 533.082 639.36 533.706C641.702 535.017 644.143 536.142 646.66 537.073C648.344 537.634 650.027 538.008 651.15 539.131C649.349 539.758 647.44 540.012 645.538 539.879C639.682 539.76 633.835 540.389 628.138 541.75C628.365 541.551 628.638 541.413 628.932 541.347C629.227 541.282 629.533 541.292 629.822 541.376" fill="#8982BC"/>
</g>
<g opacity="0.18">
<path opacity="0.18" d="M663.119 512.382C658.442 509.95 657.133 504.151 655.819 499.1C653.558 489.721 649.833 480.757 644.782 472.537C643.774 471.116 643.015 469.535 642.537 467.86C642.314 466.186 642.606 464.484 643.375 462.981C644.143 461.477 645.35 460.243 646.837 459.442C649.827 457.871 653.295 457.471 656.564 458.32L663.119 512.382Z" fill="#8982BC"/>
</g>
<path d="M685.193 711.421L688.186 716.285L691.927 714.414L688.56 709.176L685.193 711.421Z" fill="#DDD6FF"/>
<path d="M702.216 728.07C702.216 728.07 685.567 724.142 682.948 726.199C680.329 728.256 702.216 731.063 702.216 731.063V728.07Z" fill="#3F327A"/>
<path d="M640.107 539.132C640.107 539.132 640.294 530.714 639.733 530.714C638.233 530.34 638.049 534.642 638.049 534.642C638.049 534.642 635.43 526.411 634.308 526.785C633.56 526.972 634.495 531.836 634.495 531.836C634.495 531.836 632.437 528.095 631.315 528.282C630.38 528.469 632.437 533.707 632.437 533.707C632.437 533.707 630.566 531.275 629.631 531.462C628.883 531.649 635.617 542.873 635.617 542.873L640.107 539.132Z" fill="#F7D3A9"/>
<path d="M675.278 603.296C675.278 603.296 648.899 635.284 661.999 672.885C675.281 710.485 684.073 714.414 684.073 714.414L691.743 710.486C691.743 710.486 676.962 675.317 676.399 662.596C675.838 650.996 696.041 623.686 696.041 623.686L691.925 727.134L701.652 728.444C701.652 728.444 727.652 612.463 724.852 603.483C722.232 594.13 710.634 581.035 675.278 603.296V603.296Z" fill="#3F327A"/>
<path d="M669.48 559.336L675.28 603.11L722.608 597.498L703.34 529.218L689.122 531.463L679.022 532.585C673.222 533.333 669.669 534.269 665.553 538.385L649.09 557.278L640.858 537.636L633.75 541.19C633.75 541.19 639.549 576.92 648.901 573.366C655.263 570.934 669.48 559.336 669.48 559.336V559.336Z" fill="#FFC359"/>
<path d="M661.435 474.594C661.435 474.594 671.911 500.97 673.22 505.086C674.529 509.202 703.338 529.218 703.338 529.218L689.121 535.765L661.248 509.95L655.075 474.594H661.435Z" fill="#FFC359"/>
<path d="M672.285 502.467L668.357 516.31C668.144 517.035 668.076 517.794 668.158 518.545C668.241 519.296 668.471 520.023 668.837 520.685C669.202 521.346 669.695 521.928 670.287 522.397C670.879 522.866 671.558 523.213 672.285 523.418L674.156 523.979V533.893H682.574C684.013 533.892 685.392 533.32 686.409 532.303C687.426 531.286 687.998 529.906 687.999 528.468V506.021L672.285 502.467Z" fill="#F7D3A9"/>
<path d="M680.329 524.728C678.829 523.606 676.588 521.548 676.588 518.742C676.588 518.742 682.388 518.555 680.888 514.442C679.953 512.01 676.588 513.881 676.588 513.881C676.588 513.881 677.897 508.83 677.149 507.147C677.149 507.147 667.049 507.147 668.731 501.161C668.731 501.161 671.537 498.542 677.897 498.355C684.257 497.981 687.624 508.644 687.624 508.644L682.386 523.983C681.826 524.915 680.89 525.289 680.329 524.728V524.728Z" fill="#353E70"/>
<path d="M655.262 474.594C655.262 474.594 650.024 468.047 650.211 467.673C651.146 466.364 653.952 469.544 653.952 469.544C653.952 469.544 650.772 461.5 652.081 460.939C652.829 460.752 654.887 465.054 654.887 465.054C654.887 465.054 654.139 460.754 655.074 460.19C656.009 459.816 657.506 465.054 657.506 465.054C657.506 465.054 657.506 462.061 658.441 461.687C659.002 461.5 660.873 474.408 660.873 474.408H655.261L655.262 474.594Z" fill="#F7D3A9"/>
<path d="M680.14 551.853C680.14 552.04 679.579 552.227 678.456 553.162C677.521 553.91 676.024 555.033 674.528 556.155C671.348 558.4 668.728 560.083 668.542 559.896C668.356 559.709 670.974 557.838 673.967 555.596C675.467 554.474 676.96 553.538 678.082 552.79C679.394 551.853 680.14 551.666 680.14 551.853Z" fill="#D69E43"/>
<path d="M687.999 525.102H688.186C688.373 525.102 688.373 525.476 688.56 525.663C688.583 526.354 688.52 527.045 688.373 527.721C688.221 528.788 687.838 529.809 687.251 530.714C686.869 531.259 686.43 531.762 685.941 532.214C685.379 532.636 684.745 532.952 684.07 533.149C681.817 533.78 679.488 534.094 677.148 534.084C675.464 534.084 674.342 533.897 674.342 533.71C674.342 533.523 675.464 533.71 677.148 533.523C679.362 533.362 681.554 532.986 683.695 532.401C684.836 532.051 685.825 531.326 686.501 530.343C687.034 529.479 687.413 528.53 687.623 527.537C687.822 526.867 687.948 526.177 687.997 525.479C688.186 525.289 687.812 525.102 687.999 525.102V525.102Z" fill="#D69E43"/>
<path d="M648.528 563.451C648.658 563.608 648.725 563.808 648.715 564.012H648.341C648.161 562.962 648.098 561.896 648.154 560.832C648.341 558.774 648.715 557.091 648.902 557.091C649.089 557.091 649.089 558.775 648.902 560.832C648.902 562.142 648.715 563.451 648.715 564.012H648.341C648.332 563.808 648.398 563.608 648.528 563.451V563.451Z" fill="#D69E43"/>
<path d="M650.212 561.955C649.74 561.081 649.423 560.132 649.277 559.149C648.903 557.465 648.903 556.156 649.09 556.156C649.562 557.03 649.879 557.979 650.025 558.962C650.212 560.645 650.399 561.955 650.212 561.955Z" fill="#D69E43"/>
<path d="M641.419 539.506C640.189 540.284 638.871 540.912 637.491 541.377C635.246 542.125 633.376 542.686 633.376 542.499C634.607 541.721 635.925 541.093 637.304 540.628C639.548 539.88 641.419 539.319 641.419 539.506Z" fill="#D69E43"/>
<path d="M720.362 593.382C720.362 593.382 719.801 593.756 718.862 594.317C717.362 595.029 715.795 595.593 714.185 596.001C710.07 597.123 704.271 598.433 697.91 599.555C694.73 600.116 691.737 600.677 688.931 601.055C686.125 601.433 683.693 601.803 681.448 601.99C679.756 602.186 678.042 602.059 676.397 601.616C675.275 601.429 674.526 601.055 674.713 601.055C675.326 601.229 675.952 601.354 676.584 601.429C678.262 601.621 679.957 601.621 681.635 601.429C684.088 601.197 686.526 600.822 688.935 600.307C691.741 599.933 694.735 599.372 697.914 598.807C704.274 597.685 710.073 596.375 714.189 595.44C715.773 595.021 717.334 594.52 718.866 593.94C719.394 593.844 719.901 593.655 720.362 593.382V593.382Z" fill="#D69E43"/>
<path opacity="0.25" d="M679.768 551.479C679.768 551.479 676.962 571.869 671.163 575.049L669.292 560.084L679.768 551.479Z" fill="#8982BC"/>
<path d="M670.789 506.022C669.831 505.226 669.009 504.278 668.357 503.216C667.983 501.906 668.544 498.726 669.667 497.978C670.976 497.23 672.66 497.978 674.157 498.165C676.402 498.539 678.647 497.604 681.079 497.417C683.324 497.23 686.13 497.978 686.879 500.036C687.066 500.41 687.066 500.971 687.627 501.158H688.188C690.059 500.971 691.181 503.029 691.181 504.899C690.994 506.77 690.059 508.266 689.681 509.95C688.746 513.691 690.429 517.994 688.746 521.55C687.436 524.356 683.321 526.788 680.515 524.73L684.069 508.642L670.789 506.022Z" fill="#353E70"/>
<path d="M691.927 714.414C691.927 714.414 676.4 721.336 675.465 724.514C674.53 727.692 693.798 716.657 693.798 716.657L691.927 714.414Z" fill="#3F327A"/>
<path d="M676.4 657.733C676.587 657.92 674.529 659.233 671.91 660.726C669.291 662.219 667.046 662.971 666.859 662.784C668.347 661.735 669.911 660.797 671.536 659.978C674.16 658.668 676.213 657.545 676.4 657.733Z" fill="#2C2656"/>
<path d="M676.214 662.223C676.214 662.41 674.714 662.971 672.847 664.094C670.98 665.217 669.667 666.152 669.48 665.965C669.293 665.778 670.602 664.465 672.473 663.346C674.343 662.41 676.214 662.036 676.214 662.223V662.223Z" fill="#2C2656"/>
<path d="M710.634 671.015C710.634 671.202 708.015 670.828 705.209 669.893C703.358 669.418 701.592 668.661 699.971 667.648C699.971 667.461 702.403 668.209 705.396 669.148C708.202 670.079 710.634 670.828 710.634 671.015Z" fill="#2C2656"/>
<path d="M711.383 669.519C711.383 669.706 708.951 669.145 705.958 667.835C704.177 667.209 702.528 666.258 701.094 665.029C701.281 664.842 703.526 665.964 706.332 667.087C708.067 667.786 709.755 668.598 711.383 669.519V669.519Z" fill="#2C2656"/>
<path d="M685.192 711.794C685.379 711.607 685.753 711.981 686.127 712.729C686.501 713.29 686.688 713.851 686.501 714.039C686.314 714.227 685.94 713.852 685.566 713.104C685.192 712.356 685.005 711.794 685.192 711.794Z" fill="#2C2656"/>
<path d="M680.142 703.003C680.329 702.816 681.077 703.751 681.642 705.061C682.39 706.183 682.764 707.306 682.577 707.493C682.39 707.68 681.642 706.745 681.077 705.435C680.669 704.665 680.356 703.848 680.142 703.003V703.003Z" fill="#2C2656"/>
<path d="M675.84 694.024C676.411 694.615 676.856 695.315 677.15 696.082C677.711 697.392 678.085 698.327 677.898 698.514C677.328 697.923 676.883 697.223 676.589 696.456C676.027 695.333 675.653 694.211 675.84 694.024V694.024Z" fill="#2C2656"/>
<path d="M672.098 684.857C672.699 685.497 673.146 686.264 673.407 687.102C673.968 688.412 674.155 689.534 673.968 689.534C673.368 688.894 672.92 688.127 672.659 687.289C672.285 685.979 671.911 684.857 672.098 684.857Z" fill="#2C2656"/>
<path d="M669.104 675.317C669.687 675.941 670.077 676.721 670.226 677.562C670.6 678.872 670.787 679.994 670.6 679.994C670.017 679.37 669.627 678.59 669.478 677.749C669.104 676.439 668.917 675.317 669.104 675.317Z" fill="#2C2656"/>
<path d="M666.672 665.589C666.859 665.589 667.233 666.524 667.607 668.021C667.981 669.33 667.981 670.453 667.794 670.453C667.607 670.453 667.233 669.518 666.859 668.021C666.672 666.711 666.485 665.589 666.672 665.589Z" fill="#2C2656"/>
<path d="M665.737 655.675C665.924 655.675 666.111 656.797 666.298 658.107C666.298 659.417 666.298 660.539 666.111 660.539C665.924 660.539 665.737 659.417 665.55 658.107C665.363 656.797 665.55 655.675 665.737 655.675Z" fill="#2C2656"/>
<path d="M666.112 645.573C666.299 645.573 666.299 646.695 666.299 648.005C666.112 649.315 665.925 650.437 665.738 650.437C665.551 650.437 665.551 649.315 665.551 648.005C665.738 646.695 665.925 645.573 666.112 645.573Z" fill="#2C2656"/>
<path d="M667.983 635.846C668.17 635.846 668.17 636.968 667.796 638.278C667.647 639.142 667.329 639.969 666.861 640.71C666.674 640.71 666.674 639.588 667.048 638.278C667.421 636.781 667.795 635.846 667.983 635.846Z" fill="#2C2656"/>
<path d="M671.163 626.305C671.35 626.305 671.163 627.427 670.602 628.737C670.041 630.047 669.667 630.982 669.48 630.982C669.293 630.982 669.48 629.86 670.041 628.55C670.19 627.709 670.58 626.929 671.163 626.305V626.305Z" fill="#2C2656"/>
<path d="M675.465 617.326C675.652 617.513 675.278 618.448 674.717 619.758C674.45 620.587 673.924 621.308 673.217 621.816C673.03 621.816 673.404 620.694 673.965 619.384C674.717 618.074 675.278 617.326 675.465 617.326Z" fill="#2C2656"/>
<path d="M680.89 608.908C681.077 609.095 680.516 610.03 679.768 611.153C679.02 612.276 678.268 613.211 678.084 613.024C677.9 612.837 678.458 611.902 679.206 610.779C679.954 609.656 680.703 608.721 680.89 608.908Z" fill="#2C2656"/>
<path d="M685.38 602.922C685.567 603.109 685.38 603.67 684.819 604.044C684.445 604.605 683.884 604.979 683.697 604.792C683.51 604.605 683.697 604.044 684.258 603.67C684.819 603.109 685.193 602.922 685.38 602.922Z" fill="#2C2656"/>
<path d="M752.536 762.116C751.975 762.303 745.427 731.998 737.945 694.398C730.275 656.985 724.663 626.493 725.037 626.306C725.598 626.119 732.146 656.424 739.628 694.024C747.298 731.624 753.097 761.929 752.536 762.116Z" fill="#8982BC"/>
<path d="M774.984 762.116C774.423 762.303 767.875 731.998 760.393 694.398C752.723 656.985 747.111 626.493 747.485 626.306C748.046 626.119 754.594 656.424 762.076 694.024C769.746 731.624 775.545 761.929 774.984 762.116Z" fill="#8982BC"/>
<path d="M685.193 613.585H752.724V626.306H685.193V613.585Z" fill="#8982BC"/>
<path d="M715.498 620.132C716.059 620.132 710.821 652.12 704.087 691.217C697.353 730.501 691.366 762.117 690.992 762.117C690.431 762.117 695.669 730.129 702.403 690.845C709.138 651.747 714.937 619.945 715.498 620.132Z" fill="#8982BC"/>
<path d="M697.352 620.132C697.913 620.132 692.675 652.12 685.941 691.217C679.207 730.501 673.22 762.117 672.846 762.117C672.285 762.117 677.523 730.129 684.257 690.845C690.992 651.747 696.978 619.945 697.352 620.132Z" fill="#8982BC"/>
<path d="M736.636 682.987H758.897L760.019 688.225H737.571L736.636 682.987Z" fill="#8982BC"/>
<path d="M693.798 747.899C693.798 748.46 689.87 749.399 684.632 750.144C679.581 750.892 675.279 751.079 675.279 750.518C675.279 749.957 679.207 749.018 684.445 748.273C689.495 747.708 693.611 747.524 693.798 747.899Z" fill="#8982BC"/>
<path d="M695.669 736.113C695.669 736.674 691.741 737.613 686.503 738.358C681.452 739.106 677.15 739.293 677.15 738.732C677.15 738.171 681.078 737.232 686.316 736.487C691.366 735.739 695.669 735.552 695.669 736.113Z" fill="#8982BC"/>
<path d="M697.727 722.458C697.727 723.019 693.799 723.958 688.561 724.703C683.51 725.451 679.208 725.638 679.208 725.077C679.208 724.516 683.136 723.577 688.374 722.832C693.424 722.084 697.727 721.897 697.727 722.458Z" fill="#8982BC"/>
<path d="M700.158 708.802C700.158 709.363 696.23 710.302 690.992 711.047C685.941 711.795 681.639 711.982 681.639 711.421C681.639 710.86 685.567 709.921 690.805 709.176C695.855 708.428 699.971 708.241 700.158 708.802Z" fill="#8982BC"/>
<path d="M701.842 696.642C701.842 697.203 697.914 698.142 692.676 698.887C687.625 699.635 683.323 699.822 683.323 699.261C683.323 698.7 687.251 697.761 692.489 697.016C697.539 696.268 701.655 696.081 701.842 696.642Z" fill="#8982BC"/>
<path d="M704.835 684.297C704.835 684.858 700.907 685.797 695.669 686.542C690.618 687.29 686.316 687.477 686.316 686.916C686.316 686.355 690.244 685.416 695.482 684.671C700.72 683.926 704.835 683.736 704.835 684.297Z" fill="#8982BC"/>
<path d="M706.893 671.014C706.893 671.575 702.966 672.514 697.728 673.259C692.677 674.007 688.375 674.194 688.375 673.633C688.375 673.072 692.302 672.133 697.54 671.388C702.59 670.64 706.893 670.453 706.893 671.014Z" fill="#8982BC"/>
<path d="M709.325 656.423C709.325 656.984 705.397 657.923 700.159 658.668C695.108 659.416 690.806 659.603 690.806 659.042C690.806 658.481 694.734 657.542 699.972 656.797C705.022 656.049 709.325 655.862 709.325 656.423Z" fill="#8982BC"/>
<path d="M712.505 640.148C712.505 640.709 708.577 641.648 703.339 642.393C698.288 643.141 693.986 643.328 693.986 642.767C693.986 642.206 697.914 641.267 703.152 640.522C708.202 639.774 712.318 639.587 712.505 640.148Z" fill="#8982BC"/>
<path d="M100.608 622.003C100.608 622.003 97.6151 630.795 99.6731 637.155C101.731 643.515 103.788 641.271 103.788 641.271C102.814 639.436 102.423 637.348 102.666 635.285C103.04 631.731 103.788 630.608 103.788 630.608L105.472 638.091C105.91 636.864 106.284 635.615 106.594 634.35C107.155 632.105 105.472 627.99 105.846 625.745C106.22 623.687 106.968 621.255 106.968 621.255L100.608 622.003Z" fill="#F7D3A9"/>
<path d="M222.576 505.647L223.137 502.28C223.137 502.28 219.77 494.797 220.705 493.301C222.063 491.615 223.566 490.05 225.195 488.624L227.253 488.998C227.253 488.998 230.994 493.862 231.368 495.545C231.742 497.228 229.497 503.028 228.001 507.517L222.576 505.647Z" fill="#F7D3A9"/>
<path d="M223.511 485.07L225.382 500.41L227.44 500.036L225.382 484.884L224.26 482.265L223.511 485.07Z" fill="#7FBBEF"/>
<path d="M222.95 490.682L225.195 488.624C225.195 488.624 226.317 490.869 223.886 493.301L222.95 490.682Z" fill="#F7D3A9"/>
<path d="M171.694 745.467L171.881 751.079L167.953 751.64L167.766 745.467H171.694Z" fill="#F7D3A9"/>
<path d="M167.953 751.641C167.953 751.641 184.789 748.648 187.221 750.706C189.653 752.764 167.579 754.634 167.579 754.634L167.953 751.641Z" fill="#3F327A"/>
<path d="M112.959 725.638L108.282 728.818L105.663 725.638L110.901 722.271L112.959 725.638Z" fill="#F7D3A9"/>
<path d="M105.659 725.638C105.659 725.638 116.883 738.359 116.509 741.726C115.948 744.906 103.04 726.948 103.04 726.948L105.659 725.638Z" fill="#3F327A"/>
<path d="M178.429 605.728C178.429 605.728 192.459 618.636 192.829 666.899C193.016 715.162 176.18 747.151 176.18 747.151H164.395C164.395 747.151 183.85 686.541 161.963 646.509C161.963 646.509 154.663 693.276 115.945 729.009L106.595 719.091C106.595 719.091 135.216 683.174 135.403 638.465C135.403 629.673 136.903 624.996 133.903 615.082L178.429 605.728Z" fill="#624FB5"/>
<path d="M170.384 551.479C170.384 551.479 207.236 541.564 216.589 515.749L221.827 503.964L228.936 506.396C228.936 506.396 227.065 553.724 181.421 566.632L180.673 569.438C177.464 581.814 177.336 594.788 180.299 607.225L184.976 616.765L135.776 627.802C135.776 627.802 129.603 603.67 135.402 578.229C135.402 578.229 124.739 575.797 106.781 626.118L99.8601 624.808C99.8601 624.808 109.775 557.277 145.504 547.924L170.384 551.479Z" fill="#FE9887"/>
<path d="M171.133 523.793L173.939 536.701C174.202 538.087 173.922 539.521 173.156 540.705C172.389 541.89 171.196 542.733 169.824 543.061L168.14 543.435L167.579 552.414L155.045 551.479L156.916 526.038L171.133 523.793Z" fill="#F7D3A9"/>
<path d="M161.029 544.37C161.029 544.37 166.08 542.125 166.267 538.384C166.267 538.384 159.72 534.269 161.967 532.584C164.214 530.899 167.767 535.016 167.767 535.016C167.767 535.016 165.896 529.216 166.645 527.716C166.645 527.716 175.811 528.277 174.689 522.852C174.689 522.852 172.257 520.42 166.458 519.672C160.659 518.924 156.731 528.464 156.731 528.464L161.029 544.37Z" fill="#353E70"/>
<path d="M164.959 520.242C163.561 519.192 161.841 518.661 160.095 518.742C157.911 518.751 155.756 519.242 153.784 520.18C151.811 521.118 150.07 522.479 148.684 524.167C147.292 525.869 146.3 527.862 145.782 529.999C145.264 532.136 145.233 534.362 145.691 536.513C145.901 537.506 146.28 538.455 146.813 539.319C148.313 541.564 150.928 542.499 153.36 543.247C155.605 543.995 159.346 545.305 161.217 543.995C161.217 543.995 158.411 535.016 160.095 529.595C161.226 526.246 162.867 523.091 164.959 520.242V520.242Z" fill="#353E70"/>
<path d="M146.814 529.779C143.447 527.16 137.835 527.908 135.403 531.279C133.719 533.524 133.345 536.704 131.103 538.388C128.484 540.446 124.743 539.51 121.563 539.136C115.763 538.762 109.591 541.194 106.411 546.058C103.231 550.922 103.605 558.03 107.911 561.958C109.369 563.202 111.07 564.127 112.907 564.675C114.743 565.223 116.673 565.38 118.574 565.138C122.315 564.951 126.057 563.454 129.611 562.145C134.662 560.087 140.087 556.907 141.77 551.669C142.892 548.115 141.957 543.999 142.518 540.258C142.705 539.136 143.079 537.826 144.018 537.452C144.766 537.078 145.889 537.452 146.637 537.452C148.882 537.265 150.191 534.646 149.443 532.588C148.997 531.598 148.324 530.727 147.479 530.044C146.634 529.362 145.641 528.888 144.579 528.66" fill="#353E70"/>
<path d="M152.987 548.86C149.72 550.788 146.704 553.113 144.008 555.781C141.389 558.587 139.331 561.954 139.144 565.881C139.144 566.816 139.144 567.939 139.892 568.5C140.285 568.818 140.727 569.071 141.201 569.248C145.129 570.37 149.058 567.939 152.425 565.694C158.037 561.953 163.836 558.211 168.139 552.974C168.322 552.816 168.456 552.608 168.522 552.375C168.589 552.142 168.585 551.895 168.513 551.664C168.3 551.433 168.046 551.243 167.765 551.103C164.024 549.794 157.102 549.981 152.987 548.858" fill="#624FB5"/>
<path d="M168.888 553.537C168.737 553.705 168.611 553.894 168.514 554.098C168.219 554.653 167.841 555.158 167.392 555.598C167.205 555.972 166.831 556.346 166.644 556.72C166.225 557.116 165.849 557.555 165.522 558.03C165.148 558.404 164.774 558.965 164.213 559.53C163.761 560.076 163.259 560.578 162.713 561.03C160.274 563.57 157.505 565.772 154.482 567.577C152.723 568.672 150.839 569.552 148.87 570.196C146.78 571.007 144.565 571.45 142.323 571.505H138.956C138.351 571.491 137.764 571.296 137.272 570.944C136.755 570.653 136.358 570.189 136.15 569.634C135.838 568.522 135.903 567.338 136.337 566.267C136.711 565.332 136.898 564.209 137.272 563.461C138.066 561.733 139.142 560.148 140.456 558.773C141.578 557.463 142.701 556.341 143.823 555.219C145.508 553.533 147.255 551.91 149.061 550.355C149.622 549.794 150.183 549.42 150.561 549.045C150.765 548.948 150.954 548.822 151.122 548.671C150.971 548.839 150.845 549.028 150.748 549.232L149.439 550.542C148.317 551.664 146.446 553.348 144.388 555.406C143.266 556.528 142.33 557.651 141.208 558.96C139.957 560.341 138.945 561.922 138.215 563.637C137.841 564.572 137.654 565.508 137.28 566.443C136.852 567.318 136.785 568.325 137.093 569.249C137.308 569.67 137.628 570.028 138.021 570.291C138.414 570.553 138.867 570.711 139.338 570.749C140.453 570.936 141.591 570.936 142.705 570.749C144.861 570.511 146.99 570.073 149.065 569.439C150.942 568.717 152.757 567.841 154.49 566.82C157.415 565.028 160.116 562.893 162.534 560.46L164.034 558.96C164.408 558.399 164.969 558.025 165.343 557.46C165.717 557.086 166.091 556.525 166.465 556.15C166.839 555.775 167.026 555.402 167.4 555.028C167.849 554.588 168.227 554.083 168.522 553.528C168.701 553.724 168.701 553.537 168.888 553.537V553.537Z" fill="#CE6C5F"/>
<path d="M168.888 557.091C168.888 557.091 168.327 557.465 167.204 558.4C165.856 559.69 164.663 561.133 163.65 562.7C162.425 565.185 161.362 567.747 160.47 570.37C159.909 571.87 159.348 573.363 158.599 575.047C157.777 576.698 156.704 578.213 155.419 579.537C153.988 580.909 152.259 581.933 150.368 582.53C149.522 582.865 148.645 583.116 147.749 583.278C146.801 583.526 145.793 583.392 144.943 582.904C144.509 582.735 144.125 582.457 143.83 582.097C143.535 581.736 143.338 581.305 143.259 580.846C142.953 580.074 142.825 579.243 142.885 578.414C143.122 577.069 143.498 575.753 144.007 574.486L144.381 574.673C144.196 574.882 143.963 575.043 143.701 575.14C143.439 575.238 143.158 575.27 142.881 575.234C142.623 575.206 142.374 575.125 142.149 574.996C141.924 574.867 141.727 574.694 141.572 574.486C141.342 574.202 141.188 573.864 141.123 573.505C141.057 573.145 141.083 572.775 141.198 572.428C141.305 572.019 141.496 571.637 141.759 571.306L142.133 570.932C141.837 571.407 141.587 571.91 141.385 572.432C141.31 572.753 141.304 573.085 141.369 573.408C141.433 573.731 141.567 574.036 141.759 574.303C142.09 574.566 142.472 574.757 142.881 574.864C143.255 574.864 143.816 574.864 144.003 574.49L144.938 573.368L144.377 574.678C143.894 575.889 143.52 577.14 143.26 578.417C143.184 579.125 143.314 579.839 143.634 580.475C143.921 581.195 144.452 581.791 145.134 582.159C145.897 582.506 146.759 582.572 147.566 582.346C148.456 582.159 149.331 581.909 150.185 581.598C152.019 580.996 153.685 579.971 155.049 578.605C156.273 577.343 157.284 575.891 158.042 574.305C158.79 572.805 159.351 571.312 160.1 569.815C161.005 567.108 162.132 564.48 163.467 561.958C164.426 560.297 165.696 558.837 167.208 557.658C167.395 557.471 167.769 557.284 167.956 557.097C168.143 556.91 168.33 556.91 168.517 556.723C168.701 557.091 168.888 557.091 168.888 557.091V557.091Z" fill="#CE6C5F"/>
<path d="M148.311 583.842C148.311 583.842 144.57 595.066 153.736 588.893C163.089 582.533 164.399 559.524 164.399 559.524C164.399 559.524 158.038 582.532 148.311 583.842V583.842Z" fill="#58BB85"/>
<path d="M184.228 691.967C184.228 692.154 181.796 692.154 178.803 692.528C175.81 692.902 173.565 693.463 173.378 693.276C173.378 693.089 175.623 692.154 178.616 691.776C181.796 691.405 184.228 691.779 184.228 691.967V691.967Z" fill="#453C87"/>
<path d="M185.724 688.037C185.267 688.465 184.764 688.842 184.224 689.159C182.889 689.869 181.428 690.314 179.924 690.468C178.426 690.606 176.916 690.543 175.434 690.281C174.312 689.907 173.75 689.72 173.75 689.533C173.75 689.346 176.556 690.281 179.923 689.72C181.917 689.395 183.865 688.829 185.724 688.037V688.037Z" fill="#453C87"/>
<path d="M141.763 683.178C141.763 683.365 139.705 682.43 138.022 680.185C136.338 678.127 135.964 675.885 136.151 675.885C136.338 675.885 137.086 677.756 138.583 679.813C140.08 681.678 141.763 682.987 141.763 683.178V683.178Z" fill="#453C87"/>
<path d="M140.641 684.296C140.454 684.296 140.454 683.922 139.893 683.548C139.195 683.03 138.442 682.591 137.648 682.238C136.473 681.643 135.347 680.955 134.281 680.18C134.281 679.993 135.965 680.554 137.835 681.68C138.649 682.149 139.403 682.714 140.081 683.364C140.828 683.735 140.828 684.296 140.641 684.296Z" fill="#453C87"/>
<path d="M172.63 650.063C171.617 650.148 170.598 650.021 169.637 649.689C167.766 649.128 165.522 647.818 162.903 646.696C160.284 645.387 158.039 644.264 156.356 643.329C154.673 642.394 153.737 641.829 153.737 641.645C153.737 641.645 154.859 642.019 156.543 642.767C158.227 643.515 160.658 644.638 163.09 645.947C165.212 647.127 167.398 648.188 169.637 649.127C171.507 649.876 172.63 649.876 172.63 650.063V650.063Z" fill="#453C87"/>
<g opacity="0.18">
<path opacity="0.18" d="M375.222 273.31C372.603 275.368 371.855 279.483 372.79 282.663C373.725 286.03 375.783 288.836 377.841 291.455C383.079 298.189 388.691 304.924 394.677 311.284C397.483 314.464 400.477 317.457 402.721 321.011C411.887 335.228 408.894 353.935 410.578 370.771C410.952 374.512 412.823 379.376 416.564 379.189C418.022 379.072 419.402 378.481 420.492 377.505C424.39 374.738 427.588 371.098 429.829 366.876C432.07 362.653 433.293 357.965 433.4 353.186C433.4 350.38 433.213 347.574 433.961 344.955C435.27 341.214 438.451 338.782 441.07 335.976C446.495 329.99 448.927 322.133 451.359 314.463C453.978 305.671 456.597 295.943 452.481 287.712C449.488 281.912 443.502 278.359 437.516 275.927C417.874 268.07 395.987 271.063 375.036 274.056" fill="#8982BC"/>
</g>
<path d="M427.227 374.326L427.414 379.938L423.299 380.499L423.112 374.326H427.227Z" fill="#F7D3A9"/>
<path d="M423.299 380.499C423.299 380.499 440.135 377.506 442.567 379.564C444.999 381.622 422.925 383.492 422.925 383.492L423.299 380.499Z" fill="#3F327A"/>
<path d="M439.386 343.647L436.58 348.511L432.839 346.827L436.019 341.589L439.386 343.647Z" fill="#F7D3A9"/>
<path d="M432.839 346.827C432.839 346.827 448.553 353.374 449.488 356.554C450.423 359.734 430.968 349.071 430.968 349.071L432.839 346.827Z" fill="#3F327A"/>
<path d="M432.091 208.023C438.638 203.908 430.22 200.353 438.077 200.914C439.761 200.914 441.818 201.101 443.128 200.166C444.999 198.857 445.373 196.238 444.812 193.993C444.188 191.302 442.696 188.891 440.566 187.133C438.435 185.375 435.785 184.366 433.025 184.264C425.542 184.077 419.182 190.437 411.699 190.064C408.893 189.877 406.274 188.755 403.468 188.006C395.611 185.574 385.323 186.884 381.394 194.179C380.272 196.05 379.894 198.294 378.588 200.165C375.221 205.59 368.112 206.525 362.874 209.892C359.96 211.838 357.624 214.532 356.11 217.692C354.596 220.851 353.96 224.36 354.269 227.85C354.643 230.656 355.578 233.836 358.01 235.52C358.01 235.52 366.054 245.809 384.199 235.52C402.344 225.231 432.091 208.023 432.091 208.023V208.023Z" fill="#FE9887"/>
<path d="M416.938 227.291C419.744 224.111 462.956 271.439 472.31 276.491C481.476 281.542 479.418 276.491 479.418 276.491L460.898 255.914L425.356 215.88L416.938 227.291Z" fill="#624FB5"/>
<path d="M422.363 209.52C418.529 207.663 414.249 206.924 410.014 207.387C405.779 207.85 401.76 209.497 398.418 212.139L398.231 212.326C386.259 221.866 371.293 240.573 375.783 272.562L417.873 267.511C417.873 267.511 411.887 260.402 419.557 239.264C423.673 227.664 427.414 216.816 427.414 216.816L422.363 209.52Z" fill="#C4B9FF"/>
<path d="M399.915 224.672C399.915 224.672 403.469 262.46 417.686 267.51C431.903 272.56 457.531 272.561 457.531 272.561C457.531 272.561 459.589 269.942 432.277 263.395C431.155 263.208 430.032 262.834 428.723 262.647C428.723 262.647 413.196 253.668 414.132 226.356C414.163 225.106 414.1 223.856 413.945 222.615C413.384 218.687 411.326 210.456 405.714 211.204C398.232 212.139 399.915 224.672 399.915 224.672V224.672Z" fill="#624FB5"/>
<path d="M375.784 272.561C375.784 272.561 407.772 311.097 414.32 322.508C420.68 333.919 417.874 374.508 419.932 375.635C421.99 376.762 430.221 375.635 430.221 375.635L430.782 344.956L431.156 328.868C431.343 321.139 430.009 313.448 427.228 306.233L418.623 283.411C418.623 283.411 453.979 285.656 447.805 303.427C439.948 325.688 432.84 342.711 432.84 342.711L439.949 345.517C439.949 345.517 473.434 303.427 465.577 284.907C457.72 266.387 417.877 267.884 417.877 267.884L375.784 272.561Z" fill="#FFC359"/>
<path d="M444.998 199.232L439.386 211.204C438.764 212.468 437.667 213.434 436.334 213.89C435.001 214.345 433.542 214.254 432.277 213.636L430.777 212.888L428.158 215.881C427.716 216.373 427.181 216.772 426.585 217.057C425.988 217.342 425.341 217.506 424.681 217.541C424.021 217.576 423.36 217.48 422.737 217.259C422.114 217.039 421.54 216.697 421.049 216.255L419.74 215.133C418.588 214.107 417.884 212.671 417.779 211.132C417.674 209.593 418.177 208.074 419.179 206.902L432.277 192.123L444.998 199.232Z" fill="#F7D3A9"/>
<path d="M424.421 209.521C424.421 209.521 429.659 210.83 432.091 208.021C432.091 208.021 429.285 200.912 432.091 200.721C434.897 200.721 435.084 206.146 435.084 206.146C435.084 206.146 437.142 200.346 438.638 199.786C438.638 199.786 445.559 205.959 447.991 200.908C447.991 200.908 447.617 197.541 443.501 193.425C439.385 189.309 431.155 191.554 431.155 191.554L424.421 209.521Z" fill="#FE9887"/>
<path d="M427.227 216.628C427.227 216.628 427.227 216.815 426.853 217.189C426.368 217.583 425.787 217.841 425.169 217.937C424.236 218.032 423.296 218.032 422.363 217.937C421.758 217.923 421.171 217.728 420.679 217.376C420.154 217.038 419.708 216.592 419.37 216.067C418.157 214.376 417.503 212.348 417.499 210.267C417.499 208.767 417.873 207.835 418.06 207.835C418.247 207.835 418.06 208.77 418.06 210.267C418.137 212.22 418.788 214.107 419.931 215.692L421.053 216.814C421.46 217.024 421.905 217.151 422.362 217.188C423.232 217.282 424.111 217.282 424.981 217.188C425.564 217.197 426.141 217.068 426.665 216.814C426.869 216.824 427.069 216.758 427.227 216.628Z" fill="#624FB5"/>
<path d="M405.34 220.744C405.001 221.388 404.626 222.013 404.218 222.615C403.47 223.924 402.534 225.608 401.225 227.666C397.908 233.167 395.031 238.922 392.62 244.876C391.362 248.209 390.422 251.654 389.814 255.165C389.317 258.007 389.067 260.886 389.066 263.77C389.058 265.71 389.183 267.647 389.44 269.57C389.627 270.879 389.814 271.628 389.814 271.628C389.791 271.43 389.727 271.239 389.627 271.067C389.57 270.553 389.444 270.048 389.253 269.567C388.837 267.659 388.587 265.718 388.505 263.767C388.44 260.826 388.628 257.884 389.066 254.975C389.698 251.47 390.637 248.027 391.872 244.686C394.312 238.677 397.318 232.915 400.851 227.476C402.161 225.418 403.283 223.735 404.031 222.612C404.779 221.305 405.153 220.744 405.34 220.744V220.744Z" fill="#624FB5"/>
<path d="M416.003 206.527C418.508 208.226 421.406 209.256 424.421 209.52C428.911 209.707 431.721 190.813 431.721 190.813L416.003 206.527Z" fill="#FE9887"/>
<path d="M398.045 274.058C398.3 274.713 398.364 275.426 398.232 276.116C398.175 277.735 397.794 279.325 397.11 280.793C396.472 282.291 395.514 283.632 394.304 284.721C393.78 285.148 393.216 285.524 392.62 285.843C392.62 285.843 393.181 285.282 393.929 284.343C394.906 283.144 395.723 281.824 396.361 280.415C397.005 278.987 397.446 277.476 397.67 275.925C397.858 274.806 397.858 274.058 398.045 274.058V274.058Z" fill="#DBA246"/>
<path d="M398.606 289.023C398.814 289.256 399.001 289.506 399.167 289.771C399.541 290.332 400.102 290.893 400.851 291.829C402.348 293.7 404.405 296.319 407.024 299.686C409.977 303.645 412.604 307.836 414.881 312.219C416.227 314.801 417.353 317.492 418.248 320.263C419.194 323.267 419.943 326.328 420.493 329.429C422.181 340.326 423.119 351.327 423.299 362.353C423.299 366.653 423.299 370.023 423.112 372.453C423.112 373.575 422.925 374.511 422.925 375.259C422.925 375.82 422.925 376.194 422.738 376.194V372.453C422.738 370.021 422.738 366.653 422.551 362.538C422.295 351.571 421.295 340.633 419.558 329.801C419.071 326.704 418.383 323.643 417.5 320.635C416.605 317.864 415.479 315.173 414.133 312.591C411.958 308.191 409.391 303.997 406.463 300.058C404.031 296.691 401.973 293.885 400.477 292.014C399.729 291.081 399.168 290.332 398.793 289.769C398.793 289.397 398.606 289.21 398.606 289.023V289.023Z" fill="#DBA246"/>
<path d="M417.313 278.735C417.5 278.735 417.687 279.857 418.248 280.98C418.622 282.289 419.183 283.225 418.996 283.225C418.809 283.412 418.061 282.477 417.496 281.167C417.126 279.857 417.126 278.735 417.313 278.735V278.735Z" fill="#DBA246"/>
<path d="M415.629 274.245C415.442 274.432 414.32 273.31 412.823 272C411.326 270.69 410.017 269.755 410.204 269.568C410.391 269.381 411.704 270.129 413.384 271.439C414.881 272.748 415.816 274.055 415.629 274.245V274.245Z" fill="#DBA246"/>
<path d="M423.112 281.729C423.333 281.554 423.587 281.427 423.86 281.355C424.692 281.03 425.505 280.656 426.292 280.233C429.489 279.195 432.849 278.751 436.206 278.924C438.493 279.106 440.751 279.545 442.94 280.233C445.549 281.018 447.925 282.431 449.861 284.348C450.882 285.444 451.705 286.71 452.293 288.089C452.801 289.538 453.116 291.048 453.228 292.579C453.387 294.133 453.45 295.695 453.415 297.256C453.442 298.88 453.38 300.503 453.228 302.12C452.879 305.26 452.124 308.341 450.983 311.286C449.861 314.092 448.551 316.711 447.429 319.33C444.997 324.381 442.939 328.87 441.256 332.799C439.385 336.54 438.076 339.72 436.956 341.778C436.395 342.9 435.834 343.649 435.647 344.023C435.481 344.288 435.294 344.538 435.086 344.771L435.46 344.023C435.942 343.238 436.379 342.426 436.769 341.591C437.891 339.533 439.201 336.353 440.884 332.425C442.567 328.497 444.625 324.007 447.057 318.956C448.179 316.337 449.489 313.718 450.611 310.912C451.752 308.031 452.507 305.012 452.856 301.933C453.011 300.379 453.074 298.817 453.043 297.256C453.078 295.757 453.015 294.257 452.856 292.766C452.743 291.296 452.429 289.849 451.921 288.466C451.353 287.177 450.596 285.979 449.676 284.912C447.819 283.124 445.58 281.781 443.129 280.984C440.945 280.279 438.684 279.839 436.395 279.675C433.112 279.468 429.818 279.848 426.668 280.797C424.234 281.167 423.112 281.916 423.112 281.729V281.729Z" fill="#DBA246"/>
<g opacity="0.18">
<path opacity="0.18" d="M413.758 454.765C413.835 454.33 414.01 453.919 414.27 453.563C414.53 453.206 414.868 452.913 415.258 452.707C415.875 452.43 416.545 452.286 417.222 452.286C417.899 452.286 418.568 452.43 419.186 452.707C421.057 453.829 421.992 456.261 422.553 458.319C423.114 460.564 423.488 462.809 424.798 464.679C425.179 465.308 425.778 465.774 426.482 465.988C427.791 466.175 428.727 465.24 429.662 464.304C432.094 461.685 434.9 459.066 438.267 458.131C441.634 457.196 445.937 458.131 447.807 461.311C448.614 463.075 449.059 464.984 449.116 466.923C450.238 482.449 451.174 497.976 452.296 513.503C452.857 520.803 453.231 528.094 451.174 535.016C449.303 541.189 431.345 559.335 422.74 559.335" fill="#8982BC"/>
</g>
<path d="M414.881 611.152L410.766 694.771L398.79 750.517L393.365 749.017L398.042 693.084L388.689 635.654L380.271 689.342L361.751 750.7L356.887 750.887L365.679 689.716L363.247 615.263L414.881 611.152Z" fill="#F7D3A9"/>
<path d="M432.652 471.039L427.224 513.878L400.661 539.693L376.716 540.067L368.114 555.22L371.668 568.876C374.248 578.843 373.391 589.388 369.236 598.807L363.624 615.642L415.816 621.628C417.5 581.97 416.751 578.79 410.204 556.155L441.07 516.31V469.73L432.652 471.039Z" fill="#3F327A"/>
<path d="M410.578 469.543C407.959 471.043 391.31 513.691 391.31 513.691L392.245 541.003L376.532 543.808V512.568L403.844 464.492L410.578 469.543Z" fill="#3F327A"/>
<path d="M396.922 513.317L401.786 525.663C402.291 526.979 402.261 528.44 401.701 529.734C401.142 531.028 400.098 532.051 398.793 532.584L397.109 533.145L397.857 542.124L385.324 543.246L383.079 517.807L396.922 513.317Z" fill="#F7D3A9"/>
<path d="M390 536.7C390 536.7 394.864 532.585 394.49 528.843C394.49 528.843 387.381 525.85 389.252 523.792C391.123 521.734 395.238 525.292 395.238 525.292C395.238 525.292 392.432 519.867 392.993 518.37C392.993 518.37 402.159 517.622 400.293 512.197C400.293 512.197 397.487 510.139 391.688 510.326C385.889 510.513 383.453 520.612 383.453 520.612L390 536.7Z" fill="#FFC359"/>
<path d="M392.619 510.884C389.876 510.19 387.008 510.15 384.246 510.768C381.484 511.385 378.906 512.642 376.719 514.438C374.563 516.253 372.877 518.56 371.802 521.165C370.727 523.77 370.297 526.596 370.546 529.403C370.92 533.331 372.417 537.447 370.92 541.003C370.055 542.833 368.774 544.434 367.179 545.68C362.879 549.608 358.2 553.537 354.833 558.401C351.466 563.265 349.221 569.251 350.156 575.05C350.516 577.583 351.55 579.974 353.149 581.971C354.119 582.879 354.997 583.882 355.768 584.964C358.387 588.892 356.89 594.317 358.574 598.807C360.632 604.419 367.366 607.038 373.352 607.599C381.583 608.347 390.562 606.664 396.735 601.052C402.908 595.44 405.156 585.337 400.476 578.416C398.231 575.049 394.116 572.056 394.49 567.94C394.677 565.321 396.735 563.45 397.67 561.018C398.732 558.665 398.977 556.026 398.367 553.517C397.757 551.009 396.327 548.777 394.303 547.175C392.803 546.053 390.936 545.304 389.626 543.995C388.316 542.686 387.381 540.628 388.126 538.944C388.687 537.634 390.184 536.886 390.932 535.577C391.867 533.706 390.745 531.277 389.248 529.591C387.751 527.905 386.068 526.224 385.881 524.166C385.83 522.481 386.359 520.83 387.381 519.489C388.881 516.683 390.374 513.689 391.871 510.884" fill="#FFC359"/>
<path d="M363.25 615.268L359.509 644.45L387.569 648.94L388.878 637.34L390.378 648.751H418.438L415.445 621.251L363.25 615.268Z" fill="#624FB5"/>
<path d="M357.451 748.273C357.451 748.273 374.474 748.273 376.532 750.705C378.59 753.324 356.516 751.079 356.516 751.079L357.451 748.273Z" fill="#3F327A"/>
<path d="M392.058 749.582C392.058 749.582 408.894 746.589 411.326 748.647C413.758 750.705 391.684 752.575 391.684 752.575L392.058 749.582Z" fill="#3F327A"/>
<path d="M399.728 640.71C399.541 640.897 395.613 639.026 390.375 636.969C385.324 634.911 381.022 633.602 381.022 633.415C381.022 633.228 382.144 633.602 383.828 633.976C385.512 634.537 387.943 635.286 390.562 636.221C392.822 637.039 395.012 638.04 397.109 639.214C398.792 640.149 399.728 640.71 399.728 640.71Z" fill="#453C87"/>
<path d="M388.13 645.947C388.13 646.134 386.446 645.76 384.015 645.199C381.396 644.638 377.842 644.077 373.915 643.515C369.988 642.953 366.245 642.58 363.626 642.205C361.007 641.83 359.326 641.644 359.326 641.457C359.326 641.27 361.01 641.457 363.626 641.644C366.242 641.831 369.986 642.205 373.915 642.766C377.844 643.327 381.585 644.075 384.015 644.637C386.634 645.198 388.13 645.76 388.13 645.947Z" fill="#453C87"/>
<path d="M417.687 644.638C417.687 644.825 416.187 644.825 413.572 645.012C410.957 645.199 407.399 645.386 403.657 645.573C399.729 645.76 396.174 646.134 393.742 646.321C391.31 646.508 389.627 646.508 389.627 646.508C389.627 646.321 391.127 646.134 393.742 645.76C396.357 645.386 399.915 645.012 403.657 644.825C407.585 644.638 411.14 644.451 413.757 644.451C416.003 644.451 417.687 644.451 417.687 644.638Z" fill="#453C87"/>
<path d="M416.564 628.176C416.035 628.492 415.47 628.743 414.88 628.924C413.361 629.172 411.802 628.977 410.39 628.363C408.995 627.723 407.822 626.681 407.023 625.37C406.462 624.435 406.275 623.686 406.462 623.686C406.649 623.686 406.836 624.247 407.397 625.186C408.2 626.332 409.299 627.237 410.577 627.805C411.869 628.382 413.28 628.639 414.692 628.553C415.816 628.176 416.377 627.986 416.564 628.176V628.176Z" fill="#453C87"/>
<path d="M414.88 649.311C414.693 649.311 413.945 644.821 413.38 639.211C412.815 633.601 412.445 629.111 412.632 629.111C412.819 629.111 413.567 633.601 414.132 639.211C414.697 644.821 415.068 649.311 414.88 649.311Z" fill="#453C87"/>
<path d="M366.056 691.405C366.056 691.218 367.556 691.592 369.423 692.153C371.29 692.714 372.79 693.088 372.79 693.275C372.79 693.462 371.106 693.462 369.236 692.901C368.075 692.654 366.987 692.142 366.056 691.405Z" fill="#D3AB84"/>
<path d="M373.352 691.03C373.352 691.217 371.668 691.778 369.611 691.591C367.553 691.591 365.87 691.03 365.87 690.843C365.87 690.656 367.554 690.843 369.611 691.03C371.669 691.03 373.169 690.843 373.352 691.03Z" fill="#D3AB84"/>
<path d="M406.462 691.965C405.436 692.555 404.278 692.876 403.095 692.9C401.224 693.274 399.541 693.087 399.541 692.9C399.541 692.713 401.041 692.339 402.908 692.152C404.775 691.965 406.275 691.778 406.462 691.965Z" fill="#D3AB84"/>
<path d="M404.592 690.469C404.001 691.039 403.301 691.485 402.534 691.779C401.225 692.34 400.289 692.714 400.102 692.527C400.102 692.34 400.85 691.779 402.16 691.217C403.469 690.469 404.402 690.282 404.592 690.469Z" fill="#D3AB84"/>
<path d="M409.082 469.543C409.082 469.543 416.382 465.615 416.382 465.053C416.008 463.553 412.082 465.427 412.082 465.427C412.082 465.427 418.068 459.254 417.133 458.318C416.572 457.757 412.833 460.937 412.833 460.937C412.833 460.937 415.078 457.196 414.333 456.447C413.588 455.698 410.218 460.001 410.218 460.001C410.218 460.001 411.527 457.195 410.779 456.447C410.218 455.886 403.67 467.297 403.67 467.297L409.082 469.543Z" fill="#F7D3A9"/>
<path d="M433.774 471.04C433.774 471.04 430.594 463.37 431.155 462.996C432.277 462.061 434.148 465.989 434.148 465.989C434.148 465.989 433.587 457.384 434.896 457.197C435.644 457.197 436.396 461.874 436.396 461.874C436.396 461.874 436.957 457.574 438.08 457.384C439.203 457.194 439.015 462.809 439.015 462.809C439.015 462.809 439.763 459.816 440.886 459.816C441.634 459.816 439.386 472.724 439.386 472.724L433.774 471.04Z" fill="#F7D3A9"/>
<path d="M268.782 651.186L288.05 604.419C288.05 604.419 341.364 622.377 340.803 623.5C340.242 624.623 317.603 671.015 317.603 671.015L268.782 651.186Z" fill="#F4F3FF"/>
<path d="M297.403 612.089C297.389 612.233 297.323 612.366 297.216 612.463C296.988 612.748 296.799 613.063 296.655 613.398C295.978 614.426 295.353 615.487 294.784 616.578C293.1 619.384 291.043 623.125 288.611 627.428C286.366 631.728 284.496 635.659 283.186 638.652C282.749 639.801 282.248 640.925 281.686 642.019C281.512 642.309 281.386 642.624 281.312 642.954C281.205 643.051 281.139 643.185 281.125 643.328C281.139 643.185 281.205 643.051 281.312 642.954C281.499 642.767 281.499 642.393 281.686 642.019C282.06 641.271 282.434 639.961 283.186 638.465C284.495 635.472 286.366 631.543 288.611 627.241C290.856 622.939 293.101 619.197 294.784 616.391C295.719 615.081 296.284 613.959 296.842 613.211C297.029 612.837 297.216 612.65 297.403 612.276C297.216 612.089 297.403 612.089 297.403 612.089V612.089Z" fill="#453C87"/>
<path d="M323.031 625.366C322.887 625.352 322.754 625.286 322.657 625.179C322.47 624.992 322.096 624.992 321.722 624.805C320.974 624.431 319.851 624.057 318.355 623.305C315.549 622.183 311.808 620.312 307.505 618.441C303.39 616.383 299.648 614.7 296.842 613.203C295.798 612.611 294.738 612.05 293.662 611.519C293.288 611.332 293.101 611.145 292.727 611.145C292.63 611.038 292.497 610.972 292.353 610.958C292.497 610.972 292.63 611.038 292.727 611.145C292.914 611.332 293.288 611.332 293.662 611.519C294.41 611.893 295.533 612.454 296.842 613.019C299.648 614.329 303.389 616.199 307.505 618.07C311.621 619.941 315.362 621.811 318.168 623.121C319.244 623.587 320.304 624.087 321.348 624.621C321.722 624.808 321.909 624.995 322.283 624.995C322.555 625.066 322.81 625.192 323.031 625.366V625.366Z" fill="#453C87"/>
<path d="M326.211 620.507C326.197 620.651 326.131 620.784 326.024 620.881C325.803 621.302 325.615 621.74 325.463 622.191C324.902 623.313 324.154 624.81 323.031 626.681C320.973 630.422 318.167 635.66 315.174 641.459C312.181 647.258 309.749 652.683 308.065 656.611C307.13 658.482 306.565 660.165 306.007 661.288C305.854 661.738 305.667 662.176 305.446 662.597L305.259 662.971C305.272 662.827 305.339 662.694 305.446 662.597C305.586 662.142 305.774 661.704 306.007 661.288C306.381 660.166 307.129 658.482 307.878 656.611C309.562 652.683 311.993 647.258 314.987 641.459C317.981 635.66 320.787 630.422 322.844 626.681C323.966 624.81 324.715 623.314 325.276 622.191C325.502 621.802 325.752 621.428 326.024 621.069C326.124 620.897 326.188 620.705 326.211 620.507V620.507Z" fill="#453C87"/>
<path d="M324.902 628.925C324.902 628.925 318.168 626.119 309.937 622.378C301.706 618.637 294.972 615.644 295.159 615.456C295.159 615.456 301.893 618.262 310.124 622.003C318.355 625.744 324.902 628.925 324.902 628.925Z" fill="#453C87"/>
<path d="M300.958 623.313C300.958 623.313 299.649 622.565 297.965 621.813C296.281 621.061 294.785 620.691 294.972 620.504C296.069 620.674 297.138 620.988 298.152 621.439C299.138 621.983 300.077 622.61 300.958 623.313V623.313Z" fill="#453C87"/>
<path d="M299.835 624.248C299.835 624.248 298.526 623.5 296.842 622.748C295.158 621.996 293.662 621.816 293.662 621.629C294.819 621.682 295.958 621.935 297.029 622.377C298.061 622.842 299.009 623.474 299.835 624.248V624.248Z" fill="#453C87"/>
<path d="M299.462 625.932C299.462 625.932 298.153 625.184 296.469 624.432C294.785 623.68 293.289 623.122 293.476 622.932C294.563 623.223 295.626 623.598 296.656 624.054C297.643 624.6 298.581 625.228 299.462 625.932V625.932Z" fill="#453C87"/>
<path d="M305.634 623.5C305.735 623.398 305.866 623.333 306.008 623.313C306.195 623.313 306.756 623.126 307.13 623.313C307.436 623.375 307.713 623.537 307.917 623.775C308.12 624.012 308.238 624.311 308.252 624.623C308.277 624.826 308.256 625.032 308.192 625.226C308.127 625.421 308.02 625.598 307.878 625.745C307.657 626.09 307.328 626.353 306.943 626.493C306.59 626.645 306.204 626.71 305.821 626.68C305.453 626.609 305.122 626.41 304.886 626.119C304.663 625.908 304.508 625.635 304.441 625.334C304.374 625.034 304.399 624.721 304.512 624.435C305.073 623.687 305.447 623.5 305.634 623.5C306.008 623.313 306.195 623.313 306.008 623.313C306.195 623.5 306.008 623.5 305.634 623.5C305.447 623.5 305.26 623.874 305.073 624.248C305.001 624.479 304.998 624.726 305.064 624.959C305.131 625.191 305.264 625.399 305.447 625.557C305.674 625.756 305.947 625.894 306.241 625.96C306.535 626.025 306.841 626.015 307.131 625.931C307.423 625.843 307.684 625.673 307.883 625.441C308.082 625.209 308.21 624.925 308.253 624.622C308.253 624.061 307.692 623.687 307.318 623.5C307.145 623.408 306.953 623.36 306.757 623.36C306.561 623.36 306.369 623.408 306.196 623.5H305.634Z" fill="#453C87"/>
<path d="M315.922 628.738C314.712 628.45 313.524 628.075 312.368 627.616C311.203 627.145 310.077 626.582 309.001 625.932C309.001 625.932 310.501 626.493 312.368 627.432C313.589 627.761 314.778 628.198 315.922 628.738V628.738Z" fill="#453C87"/>
<path d="M311.433 628.367C311.433 628.554 310.685 628.367 309.749 627.993C308.813 627.619 308.249 627.058 308.249 626.871L309.749 627.619C310.685 627.989 311.433 628.176 311.433 628.367V628.367Z" fill="#453C87"/>
<path d="M299.835 635.472H300.022C300.209 635.472 300.396 635.659 300.77 635.659C301.331 635.846 302.27 636.22 303.389 636.594C305.634 637.529 308.814 638.652 312.368 640.148H312.181C313.681 637.716 315.174 634.91 316.858 632.104L317.045 631.917L317.232 632.104C312.555 630.42 308.253 628.737 304.699 627.614H304.886C302.08 632.104 300.396 634.535 299.835 635.471C299.835 635.471 300.209 634.723 301.144 633.226C301.892 631.916 303.202 629.859 304.698 627.614V627.428H304.885C308.439 628.738 312.742 630.234 317.418 631.918H317.605L317.418 632.105L317.231 632.292C315.547 635.098 313.864 637.904 312.554 640.336V640.523H312.367C308.626 639.023 305.633 637.717 303.201 636.782C302.3 636.477 301.424 636.102 300.582 635.66C300.395 635.473 300.021 635.473 299.834 635.286L299.835 635.472Z" fill="#453C87"/>
<path d="M296.842 638.091C296.943 637.989 297.074 637.924 297.216 637.904C297.403 637.904 297.964 637.717 298.338 637.904C298.644 637.966 298.921 638.128 299.125 638.366C299.328 638.603 299.446 638.902 299.46 639.214C299.485 639.417 299.464 639.623 299.4 639.817C299.335 640.012 299.228 640.189 299.086 640.336C298.865 640.681 298.536 640.944 298.151 641.084C297.798 641.237 297.412 641.301 297.029 641.271C296.661 641.2 296.33 641.001 296.094 640.71C295.871 640.499 295.716 640.226 295.649 639.925C295.582 639.625 295.607 639.312 295.72 639.026C296.281 638.278 296.655 637.904 296.842 638.091C297.216 637.904 297.403 637.904 297.216 637.904C297.403 637.904 297.216 637.904 296.842 638.091C296.655 638.091 296.468 638.465 296.281 638.839C296.209 639.07 296.205 639.317 296.272 639.55C296.338 639.783 296.471 639.991 296.655 640.149C296.882 640.348 297.155 640.486 297.449 640.552C297.743 640.617 298.049 640.607 298.339 640.523C298.631 640.435 298.892 640.265 299.091 640.033C299.29 639.801 299.418 639.517 299.461 639.214C299.461 638.653 298.9 638.279 298.526 638.092C298.353 638 298.161 637.952 297.965 637.952C297.769 637.952 297.577 638 297.404 638.092L296.842 638.091Z" fill="#453C87"/>
<path d="M307.13 643.329C305.92 643.041 304.732 642.666 303.576 642.207C302.411 641.736 301.285 641.172 300.209 640.523C300.209 640.523 301.709 641.084 303.763 642.023C304.948 642.275 306.085 642.716 307.13 643.329V643.329Z" fill="#453C87"/>
<path d="M302.641 642.771C302.641 642.958 301.893 642.771 300.957 642.397C300.021 642.023 299.457 641.462 299.457 641.275L300.957 642.023C301.546 642.204 302.112 642.455 302.641 642.771V642.771Z" fill="#453C87"/>
<path d="M291.043 649.876H291.23C291.417 649.876 291.604 650.063 291.978 650.063C292.539 650.25 293.478 650.624 294.597 650.998C296.842 651.933 300.022 653.056 303.576 654.552H303.389C304.889 652.12 306.382 649.314 308.066 646.508L308.253 646.321L308.44 646.508C303.763 644.824 299.461 643.141 295.907 642.018H296.094C294.551 644.725 292.865 647.347 291.043 649.875C291.043 649.875 291.417 649.127 292.352 647.63C293.1 646.32 294.41 644.263 295.906 642.018V641.832H296.093C299.647 643.142 303.95 644.638 308.626 646.322H308.813L308.626 646.509L308.439 646.696C306.755 649.502 305.072 652.308 303.762 654.74V654.927H303.575C299.834 653.427 296.841 652.121 294.409 651.186C293.508 650.881 292.632 650.506 291.79 650.064C291.603 649.877 291.229 649.877 291.042 649.69C291.23 650.063 291.043 649.876 291.043 649.876V649.876Z" fill="#453C87"/>
<path d="M329.953 623.874C329.953 623.874 325.838 632.292 320.787 642.394C315.549 652.683 311.247 660.914 311.247 660.914C311.247 660.914 315.362 652.496 320.413 642.394C325.646 632.105 329.953 623.874 329.953 623.874Z" fill="#453C87"/>
<path d="M332.384 631.731C332.384 631.918 330.139 631.17 327.52 630.231C324.901 629.292 322.656 628.547 322.843 628.36C322.843 628.173 325.088 628.921 327.707 629.86C330.326 630.799 332.384 631.731 332.384 631.731Z" fill="#453C87"/>
<path d="M328.269 634.35C327.615 633.236 327.111 632.041 326.769 630.796C326.208 628.738 325.834 627.055 326.021 626.868C326.208 626.868 326.582 628.552 327.143 630.609C327.704 632.666 328.269 634.167 328.269 634.35V634.35Z" fill="#453C87"/>
<path d="M325.463 639.962C325.276 639.962 325.276 639.214 325.463 638.278C325.463 637.343 325.65 636.594 325.837 636.594C326.024 636.594 326.024 637.342 325.837 638.278C325.837 639.214 325.65 639.962 325.463 639.962Z" fill="#453C87"/>
<path d="M327.895 638.278C327.895 638.465 326.96 638.278 326.024 638.465C325.088 638.652 324.153 638.839 324.153 638.652C324.707 638.284 325.358 638.088 326.024 638.091C326.653 638.084 327.28 638.147 327.895 638.278V638.278Z" fill="#453C87"/>
<path d="M289.36 613.211C289.36 613.211 290.669 613.772 292.353 614.711C293.413 615.076 294.419 615.581 295.346 616.211C294.258 615.92 293.195 615.545 292.166 615.089C291.144 614.604 290.198 613.971 289.36 613.211V613.211Z" fill="#453C87"/>
<path d="M294.971 607.412C294.971 607.412 293.849 609.657 292.352 612.463C291.484 614.161 290.483 615.787 289.359 617.327C289.359 617.327 290.481 615.082 291.978 612.276C293.659 609.47 294.971 607.412 294.971 607.412Z" fill="#453C87"/>
<path d="M290.295 612.463C290.108 612.463 290.108 611.902 289.921 611.153V609.844C290.108 609.844 290.108 610.405 290.295 611.154C290.409 611.583 290.409 612.034 290.295 612.463V612.463Z" fill="#453C87"/>
<path d="M292.726 610.966C292.726 611.153 291.791 611.34 290.668 611.527C289.545 611.714 288.61 611.901 288.61 611.714C288.61 611.527 289.545 611.34 290.668 611.153C291.791 610.966 292.726 610.779 292.726 610.966Z" fill="#453C87"/>
<path d="M322.096 649.127C322.096 649.127 324.528 641.083 324.902 641.083C326.402 641.083 325.463 645.383 325.463 645.383C325.463 645.383 330.327 638.274 331.449 639.023C332.01 639.397 329.765 643.7 329.765 643.7C329.765 643.7 332.945 640.707 333.88 641.268C334.815 641.829 331.261 645.945 331.261 645.945C331.261 645.945 333.693 644.074 334.628 644.635C335.189 645.009 325.462 653.801 325.462 653.801L322.096 649.127Z" fill="#F7D3A9"/>
<path d="M322.096 649.127C322.096 649.127 324.528 641.083 324.902 641.083C326.402 641.083 325.463 645.383 325.463 645.383C325.463 645.383 330.327 638.274 331.449 639.023C332.01 639.397 329.765 643.7 329.765 643.7C329.765 643.7 332.945 640.707 333.88 641.268C334.815 641.829 331.261 645.945 331.261 645.945C331.261 645.945 333.693 644.074 334.628 644.635C335.189 645.009 325.462 653.801 325.462 653.801L322.096 649.127Z" fill="#F7D3A9"/>
<path d="M271.026 828.712L271.213 834.324L267.098 835.072L266.911 828.899L271.026 828.712Z" fill="#F7D3A9"/>
<path d="M267.098 835.073C267.098 835.073 283.934 832.08 286.366 834.138C288.798 836.196 266.724 838.066 266.724 838.066L267.098 835.073Z" fill="#3F327A"/>
<path d="M212.292 809.069L207.615 812.249L204.996 809.069L210.234 805.702L212.292 809.069Z" fill="#F7D3A9"/>
<path d="M204.992 809.069C204.992 809.069 216.216 821.789 215.842 825.157C215.281 828.337 202.373 810.379 202.373 810.379L204.992 809.069Z" fill="#3F327A"/>
<path d="M277.574 689.16C277.574 689.16 291.604 702.255 291.974 750.331C292.161 798.594 275.325 830.583 275.325 830.583H263.54C263.54 830.583 282.995 769.973 261.108 729.941C261.108 729.941 253.808 776.708 215.09 812.441L205.74 802.523C205.74 802.523 234.361 766.606 234.548 721.897C234.548 713.105 236.048 708.428 233.048 698.514L277.574 689.16Z" fill="#3F327A"/>
<path d="M283.56 775.398C283.56 775.585 281.128 775.585 278.135 775.959C275.142 776.333 272.897 776.894 272.71 776.707C272.71 776.52 274.955 775.585 277.948 775.207C281.128 774.65 283.56 775.211 283.56 775.398V775.398Z" fill="#232049"/>
<path d="M285.056 771.469C284.599 771.897 284.096 772.274 283.556 772.591C282.221 773.301 280.76 773.746 279.256 773.9C277.758 774.038 276.248 773.975 274.766 773.713C273.644 773.339 273.082 773.152 273.082 772.965C273.082 772.778 275.888 773.713 279.255 773.152C282.437 772.779 284.869 771.282 285.056 771.469V771.469Z" fill="#232049"/>
<path d="M240.908 766.61C240.908 766.797 238.85 765.862 237.167 763.617C235.483 761.559 235.109 759.317 235.296 759.317C235.483 759.317 236.231 761.188 237.728 763.245C239.412 765.11 241.095 766.419 240.908 766.61Z" fill="#232049"/>
<path d="M239.973 767.728C239.786 767.728 239.786 767.354 239.225 766.98C238.664 766.606 237.916 766.045 236.98 765.48C235.805 764.885 234.679 764.197 233.613 763.422C233.613 763.235 235.297 763.796 237.167 764.922C237.981 765.392 238.735 765.958 239.413 766.609C239.732 766.9 239.932 767.299 239.973 767.728V767.728Z" fill="#232049"/>
<path d="M271.962 733.495C270.949 733.58 269.93 733.453 268.969 733.121C267.098 732.56 264.854 731.25 262.235 730.128C259.616 728.818 257.371 727.696 255.688 726.761C254.005 725.826 253.069 725.261 253.069 725.077C253.069 725.077 254.191 725.451 255.875 726.199C257.559 726.947 259.99 728.07 262.422 729.379C264.544 730.559 266.73 731.621 268.969 732.559C270.839 733.308 271.962 733.308 271.962 733.495V733.495Z" fill="#232049"/>
<path d="M225.382 642.581L233.613 706.371L285.431 707.119L277.761 659.043C277.761 659.043 303.389 683.362 314.613 673.26C325.837 663.158 327.521 653.244 327.521 653.244L321.348 649.128C321.348 649.128 312.182 666.713 303.763 661.287C294.223 655.114 273.084 629.673 253.255 632.853C239.973 634.537 227.44 627.241 225.382 642.581V642.581Z" fill="#FFC359"/>
<path d="M255.874 604.606L260.738 616.952C261.243 618.268 261.213 619.73 260.654 621.024C260.094 622.318 259.05 623.341 257.745 623.874L256.061 624.435L256.809 633.414L244.276 634.536L242.031 609.096L255.874 604.606Z" fill="#F7D3A9"/>
<path d="M248.952 627.989C248.952 627.989 253.816 623.873 253.442 620.132C253.442 620.132 246.333 617.139 248.204 615.081C250.075 613.023 254.19 616.581 254.19 616.581C254.19 616.581 251.384 611.156 251.945 609.66C251.945 609.66 261.111 608.912 259.245 603.487C259.245 603.487 256.439 601.429 250.64 601.616C244.841 601.803 242.409 611.905 242.409 611.905L248.952 627.989Z" fill="#624FB5"/>
<path d="M251.571 602.173C248.828 601.479 245.96 601.439 243.198 602.057C240.436 602.674 237.858 603.931 235.671 605.727C233.515 607.542 231.828 609.849 230.754 612.454C229.679 615.059 229.249 617.885 229.498 620.692C229.872 624.62 231.369 628.736 229.872 632.292C229.007 634.122 227.726 635.723 226.131 636.969C221.831 640.897 217.152 644.826 213.785 649.69C210.418 654.554 208.173 660.54 209.108 666.339C209.468 668.873 210.501 671.263 212.101 673.261C213.071 674.169 213.949 675.172 214.72 676.254C217.339 680.182 215.842 685.607 217.526 690.097C219.584 695.709 226.318 698.328 232.304 698.889C240.535 699.637 249.514 697.954 255.687 692.342C261.86 686.73 264.105 676.628 259.428 669.707C257.183 666.34 253.068 663.347 253.442 659.231C253.629 656.612 255.687 654.741 256.622 652.309C257.684 649.956 257.929 647.316 257.319 644.808C256.709 642.3 255.279 640.068 253.255 638.466C251.755 637.344 249.888 636.595 248.578 635.286C247.268 633.977 246.333 631.919 247.078 630.235C247.639 628.925 249.136 628.177 249.884 626.868C250.819 624.997 249.697 622.568 248.2 620.882C246.703 619.196 245.02 617.515 244.833 615.457C244.781 613.772 245.311 612.121 246.333 610.78C247.833 607.974 249.326 604.98 250.823 602.18" fill="#624FB5"/>
<path d="M547.698 242.818H724.476C724.476 242.818 715.123 194.555 668.356 206.153C668.356 206.153 633.749 108.317 599.702 206.153C599.702 206.153 570.702 157.703 547.702 157.329C498.125 156.767 483.534 242.818 547.698 242.818V242.818Z" fill="white" fill-opacity="0.47"/>
<path d="M93.6869 154.897H259.987C259.987 154.897 251.195 109.44 207.234 120.477C207.234 120.477 174.684 28.44 142.696 120.477C142.696 120.477 115.384 74.833 93.6839 74.646C47.1069 74.084 33.4509 154.897 93.6869 154.897V154.897Z" fill="white" fill-opacity="0.45"/>
<path d="M666.298 115.051H761.328C761.328 115.051 756.277 89.051 731.028 95.409C731.028 95.409 712.321 42.843 694.176 95.409C694.176 95.409 678.462 69.409 666.116 69.22C639.548 68.846 631.878 115.051 666.298 115.051V115.051Z" fill="white" fill-opacity="0.2"/>
<path d="M34.5701 234.961H85.2701C85.2701 234.961 82.6501 221.118 69.1811 224.485C69.1811 224.485 59.2661 196.425 49.5391 224.485C49.5391 224.485 41.1211 210.642 34.5741 210.455C20.3571 210.268 16.2411 234.961 34.5701 234.961V234.961Z" fill="#F8F8F8"/>
<path d="M800.609 34.987H851.309C851.309 34.987 848.689 21.144 835.22 24.511C835.22 24.511 825.305 -3.54896 815.578 24.511C815.578 24.511 807.16 10.668 800.613 10.481C786.396 10.294 782.28 34.987 800.609 34.987V34.987Z" fill="#F8F8F8"/>
<path d="M179.925 45.837H274.955C274.955 45.837 269.904 19.837 244.655 26.195C244.655 26.195 225.948 -26.371 207.803 26.195C207.803 26.195 192.089 0.195042 179.743 0.00604164C153.175 -0.555958 145.505 45.837 179.925 45.837V45.837Z" fill="white" fill-opacity="0.17"/>
<path d="M70.682 706.183C52.349 720.026 22.606 707.493 6.14405 693.088C3.22097 690.626 1.18392 687.276 0.344048 683.548C-3.39695 665.59 24.85 661.287 25.598 645.199C25.972 638.277 20.734 632.291 16.806 626.492C7.82305 613.211 5.39205 596.375 7.26205 580.474C9.13205 564.573 15.119 549.421 22.04 535.017C27.652 523.232 37.94 509.763 50.661 512.756C58.892 514.627 64.1301 522.671 66.5611 530.901C69.9281 541.938 69.367 553.91 67.122 565.321C66.187 570.372 64.877 575.61 66.187 580.473C69.741 593.193 87.513 596 93.873 607.411C100.42 619.011 92.564 633.226 85.455 644.45C79.282 653.99 75.54 659.977 79.469 668.208C80.5369 670.385 82.0697 672.3 83.959 673.82C87.888 677.188 95.182 687.476 70.682 706.183V706.183Z" fill="#58BB85"/>
<path d="M49.727 750.33C49.54 750.33 49.353 716.845 49.353 675.69C49.353 634.535 49.54 601.05 49.727 601.05C49.914 601.05 50.101 634.535 50.101 675.69C50.101 716.845 49.914 750.33 49.727 750.33Z" fill="#453C87"/>
<path d="M47.2941 697.017C46.901 696.797 46.5258 696.547 46.172 696.269C45.424 695.708 44.301 694.769 42.992 693.837C40.373 691.779 36.819 688.786 32.703 685.793C28.588 682.613 25.033 679.993 22.227 677.936C21.1094 677.203 20.0466 676.391 19.047 675.504C18.6535 675.216 18.2787 674.904 17.925 674.569C18.3955 674.753 18.8366 675.005 19.234 675.317C19.982 675.878 21.1044 676.626 22.601 677.562C25.407 679.433 29.148 682.052 33.264 685.232C37.38 688.412 40.934 691.218 43.364 693.463C44.673 694.585 45.609 695.521 46.357 696.082C47.105 696.643 47.4821 697.017 47.2941 697.017Z" fill="#453C87"/>
<path d="M69.93 618.449C68.9415 619.874 67.88 621.248 66.75 622.564C64.692 624.996 62.073 628.364 58.893 632.104C55.9 635.845 53.093 639.213 51.223 641.644C50.1783 643.018 49.054 644.33 47.856 645.572C48.0754 645.179 48.3255 644.804 48.604 644.45C49.165 643.702 49.913 642.766 50.849 641.457C52.72 638.838 55.339 635.471 58.332 631.729C60.8553 628.479 63.54 625.357 66.376 622.376C67.2544 621.502 68.0672 620.564 68.808 619.57L69.93 618.449Z" fill="#453C87"/>
<path d="M874.316 708.427C862.905 717.032 844.572 709.175 834.284 700.383C832.429 698.951 831.164 696.887 830.73 694.583C828.485 683.546 845.883 680.74 846.444 670.825C846.631 666.525 843.451 662.968 841.019 659.225C835.594 650.994 833.911 640.518 835.219 630.791C836.341 620.876 840.083 611.523 844.385 602.544C847.939 595.244 854.112 587.017 862.156 588.701C867.207 589.823 870.574 594.874 872.071 599.925C874.129 606.847 873.755 614.142 872.445 621.251C871.884 624.431 870.945 627.611 871.884 630.604C873.942 638.461 884.979 640.144 889.094 647.253C893.21 654.553 888.346 663.153 883.856 670.262C880.115 676.248 877.683 679.99 880.115 685.04C880.885 686.346 881.829 687.542 882.921 688.594C884.979 690.469 889.469 696.829 874.316 708.427V708.427Z" fill="#76CC9B"/>
<path d="M858.228 751.64C858.041 751.64 857.854 718.155 857.854 677C857.854 635.845 858.041 602.36 858.228 602.36C858.415 602.36 858.602 635.845 858.602 677C858.602 718.155 858.415 751.64 858.228 751.64Z" fill="#453C87"/>
<path d="M842.332 700.196C823.999 714.039 794.256 701.506 777.794 687.101C774.871 684.64 772.834 681.289 771.994 677.561C768.253 659.603 796.5 655.3 797.248 639.212C797.622 632.291 792.384 626.304 788.456 620.505C779.477 607.223 777.045 590.387 778.916 574.487C780.787 558.587 786.773 543.434 793.694 529.03C799.306 517.245 809.594 503.776 822.315 506.769C830.546 508.64 835.784 516.684 838.215 524.915C841.582 535.952 841.021 547.924 838.776 559.335C837.841 564.386 836.531 569.624 837.841 574.487C841.395 587.208 859.167 590.014 865.527 601.425C872.074 613.025 864.218 627.24 856.922 638.464C850.749 648.004 847.008 653.991 850.936 662.222C852.004 664.399 853.537 666.315 855.426 667.834C859.538 671.388 866.832 681.672 842.332 700.196V700.196Z" fill="#58BB85"/>
<path d="M821.377 744.343C821.19 744.343 821.003 710.858 821.003 669.703C821.003 628.548 821.19 595.063 821.377 595.063C821.564 595.063 821.751 628.548 821.751 669.703C821.751 711.045 821.564 744.343 821.377 744.343Z" fill="#453C87"/>
<path d="M821.377 691.217C820.984 690.998 820.609 690.748 820.255 690.469C819.507 689.908 818.384 688.969 817.075 688.037C814.456 685.979 810.902 682.986 806.786 679.993C802.671 676.813 799.116 674.193 796.31 672.136C795.192 671.404 794.129 670.591 793.13 669.704C792.736 669.417 792.362 669.104 792.008 668.769C792.479 668.953 792.92 669.205 793.318 669.517C794.066 670.078 795.188 670.827 796.685 671.762C799.491 673.633 803.232 676.252 807.348 679.432C811.464 682.612 815.018 685.418 817.448 687.663C818.758 688.785 819.693 689.721 820.441 690.282C821.007 690.656 821.377 691.03 821.377 691.217Z" fill="#453C87"/>
<path d="M841.58 612.649C840.591 614.075 839.53 615.449 838.4 616.765C836.342 619.197 833.723 622.565 830.543 626.305C827.55 630.046 824.743 633.413 822.873 635.845C821.828 637.219 820.704 638.531 819.506 639.773C819.725 639.38 819.975 639.005 820.254 638.651C820.815 637.903 821.564 636.967 822.499 635.658C824.37 633.039 826.989 629.672 829.982 625.931C832.505 622.681 835.19 619.559 838.026 616.578C838.904 615.704 839.717 614.766 840.458 613.772L841.58 612.649Z" fill="#453C87"/>
<path d="M109.401 508.079C127.894 508.079 142.886 493.087 142.886 474.594C142.886 456.101 127.894 441.109 109.401 441.109C90.9078 441.109 75.916 456.101 75.916 474.594C75.916 493.087 90.9078 508.079 109.401 508.079Z" fill="#FFD052"/>
<path d="M123.244 503.028L139.519 508.079L138.209 491.243L123.244 503.028Z" fill="#FFD052"/>
<path d="M112.185 485.08H109.15L108.915 466.219H112.42L112.185 485.08ZM108.788 490.717C108.788 490.175 108.957 489.717 109.294 489.344C109.619 488.971 110.107 488.784 110.758 488.784C111.408 488.784 111.902 488.971 112.239 489.344C112.576 489.717 112.745 490.175 112.745 490.717C112.745 491.259 112.576 491.711 112.239 492.072C111.902 492.433 111.408 492.614 110.758 492.614C110.107 492.614 109.619 492.433 109.294 492.072C108.957 491.711 108.788 491.259 108.788 490.717Z" fill="#F5F1EB"/>
<path d="M264.666 196.425C264.666 196.612 263.544 196.425 261.673 197.173C260.379 197.649 259.214 198.422 258.272 199.429C257.33 200.436 256.637 201.65 256.248 202.973C255.687 204.657 255.874 206.714 255.874 208.773V215.882C255.838 217.132 255.901 218.383 256.061 219.623C256.428 221.648 257.486 223.483 259.056 224.814C260.625 226.146 262.608 226.891 264.666 226.923H265.227V234.78L264.292 234.406C267.098 231.974 269.904 229.542 272.897 227.106L273.084 226.919H292.352C293.549 226.99 294.75 226.864 295.906 226.545C297.026 226.223 298.069 225.676 298.97 224.936C299.87 224.197 300.61 223.281 301.144 222.245C301.651 221.252 301.968 220.174 302.079 219.065V208.585C302.079 206.34 302.266 204.095 301.518 202.225C300.746 200.439 299.439 198.937 297.777 197.925C296.095 197.09 294.227 196.704 292.352 196.803H286.927C280.193 196.803 274.768 196.616 270.839 196.616C269.403 196.665 267.965 196.603 266.539 196.429H264.668C265.173 196.411 265.675 196.349 266.168 196.242C267.604 196.262 269.039 196.199 270.468 196.055C274.396 196.055 279.821 195.868 286.556 195.868H291.974C293.974 195.693 295.983 196.082 297.774 196.99C299.699 198.013 301.216 199.663 302.074 201.667C302.5 202.743 302.753 203.879 302.822 205.034V218.877C302.801 220.179 302.481 221.459 301.887 222.618C300.68 224.988 298.601 226.799 296.087 227.669C294.802 227.978 293.479 228.104 292.159 228.043H273.084L273.458 227.856C270.465 230.288 267.658 232.907 264.853 235.156L263.918 235.904V234.774C263.918 232.155 263.918 229.723 264.105 227.474L264.666 228.035C263.094 228.07 261.541 227.692 260.162 226.937C258.783 226.182 257.626 225.078 256.809 223.735C256.068 222.531 255.559 221.199 255.309 219.807C255.215 218.499 255.215 217.187 255.309 215.879V208.77C255.309 206.525 255.122 204.47 255.87 202.784C256.355 201.401 257.145 200.146 258.182 199.11C259.218 198.073 260.473 197.283 261.856 196.798C262.72 196.349 263.715 196.217 264.666 196.425V196.425Z" fill="#58BB85"/>
</svg>
